<svg version="1" xmlns="http://www.w3.org/2000/svg" width="633.333" height="633.333" viewBox="0 0 475.000000 475.000000"><path d="M53 1c0 .5.5 1 1 1 .6 0 1-.5 1-1 0-.6-.4-1-1-1-.5 0-1 .4-1 1zM61 3.4c0 4.2 2.6 6.6 7.3 6.6 4.4 0 7.9-3.3 7.5-7C75.5.6 75.2.5 68.3.3L61 .2v3.2zM80 1.1c0 .5.6.7 1.3.3.8-.6.8-.3-.1.9C80 3.7 80.1 4.4 82 7c2.3 3.2 7.1 5.2 7.8 3.2.2-.7 1-1.2 1.7-1.2C93.3 9 95 5.9 95 2.6 95 0 94.9 0 87.5 0 82.9 0 80 .4 80 1.1zM101.7.7c-1.6 1.6-.5 5.3 2.4 7.7 3.5 3 4.1 3.1 7.8 1.2 3.9-2.1 5-3.7 4.4-6.9-.5-2.4-.9-2.7-4.8-2.7-3.3 0-4.6.5-5.9 2.2l-1.7 2.3.6-2.3c.6-2.1-1.2-3.2-2.8-1.5zM121.7.7c-1.6 2.7.6 7.2 4.4 9.2 3.9 2 6.9.1 6.9-4.4 0-2.6.3-3.3 1.5-2.9.9.4 1.5 0 1.5-1 0-1.3-1.2-1.6-6.9-1.6-3.9 0-7.2.3-7.4.7zM141 1.5c-1.3 1.6-.7 4.5 1 4.5 1.4 0 1.3-1.3-.2-2.9-1.1-1-.9-1.1.5-.5 1.4.5 1.7 1.3 1.2 3.2-.4 1.6-.1 2.8.7 3.3 1.7 1.1 6.1 1.1 5.4 0-.3-.4.4-1.7 1.5-2.7 1.7-1.6 2.2-1.6 2.9-.4.7 1.1 1 .4 1-2.3V0h-6.4c-4.4 0-6.7.5-7.6 1.5zM162 2.6c0 3.4 3.8 7.4 7.2 7.4 3.6 0 5.8-1 5.8-2.6 0-.8.4-1.4.8-1.4.5 0 .9-1.4.9-3V0h-7.4c-7.2 0-7.3 0-7.3 2.6zM181.8 1.7c-.7 2.9 1.8 6.9 5.1 8.3 3.3 1.3 5.1.7 5.1-1.8 0-1.3.2-1.4.9-.4 1.4 2.2 3.4-1.2 2.6-4.6-.6-2.8-.8-2.9-7-3.1-5.3-.1-6.4.1-6.7 1.6zM201.7.7c-1.1 1.1-.7 4.7.7 6.5.9 1.3 2.7 1.8 6.3 1.8 4.3 0 5.2-.4 6.3-2.5 1-2 1.1-2.7 0-4-.7-.8-1.6-1.2-2.1-.9-.5.3-.9 0-.9-.5 0-1.2-9.2-1.5-10.3-.4zm12.7 3.8c-.4.8-.8 1.5-1 1.5-.2 0-.4-.7-.4-1.5s.4-1.5 1-1.5c.5 0 .7.7.4 1.5zM223.5 1.1c-.4.6.1 1.7 1.1 2.5 1.8 1.4 1.7 1.5-.8 1.1-3.6-.5-3.7 1.5-.2 4.2 2.8 2.2 5.4 2.7 5.4 1.1 0-.6.7-1 1.6-1 2.5 0 4.4-2.6 4.4-5.9 0-3.1 0-3.1-5.4-3.1-3 0-5.8.5-6.1 1.1z"/><path d="M242.5 1c-.9 1.5.2 5.6 2.1 7.4 1.4 1.5 1.3 1.7-.8 2.5-1.3.4-5 1.1-8.3 1.5-3.3.4-9.2 1.4-13.1 2.3-4.6 1-8.1 1.3-10 .8-3.8-1.1-5.3-.8-8.9 2-3.6 2.6-10.5 3.8-10.5 1.7 0-.8.5-1 1.3-.6.7.5.5-.2-.4-1.6-1-1.5-2.8-2.6-4.5-2.8-2.6-.2-2.7-.1-1.1 1.1 1.8 1.5 2.4 4.3.7 3.2-.5-.3-1 0-1 .7-.1.8-.8.4-1.9-.9l-1.9-2.3-.8 2.8c-.5 1.5-.8 3.8-.9 5.1 0 2-2 3.4-14.5 9.7-8 4.1-15 7.4-15.7 7.4-.6 0-1.4.6-1.6 1.2-.3.7-.6-.1-.6-1.9-.1-3.8-1.3-4.8-4-3.4-3.7 2.1-5.2 4.2-4.9 7.7.1 1.9.6 3.4 1 3.4 1.9 0 .5 2.8-3.2 6.2-4.1 3.9-5.4 4.5-6.5 2.8-.3-.6-1.3-1-2.1-1s-1.2.5-.9 1c.3.6.3 1.9 0 3.1-.6 1.9-.8 1.9-2.4.5-4.4-4-8 1.1-4.7 6.7 1.5 2.8 1.5 3.1-.4 6.1-1 1.8-2.8 4-3.7 4.9-2.1 1.8-6.3 1.9-5.6.1.8-2-3.2-3.6-5.9-2.3-4 1.7-5.1 4.5-3.2 7.4l1.6 2.5 2.9-2.1 2.9-2v2.4c0 1.4.7 2.8 1.7 3.2 2 .7 5.7-3.1 16.6-16.9 6.6-8.4 10.3-11.4 7-5.6-1 1.8-2.2 4-2.7 5-.5.9-1.9 2.1-3 2.6-1.2.5-2.2 1.9-2.4 3-.2 1.2-1.9 4-3.8 6.2s-4.7 6.5-6.3 9.6c-3.3 6.2-9.5 14.7-11.7 15.9-.8.4-1.4 2.1-1.4 3.7 0 1.7-.7 3.3-1.7 3.9-1.5.8-1.6 1.2-.4 3.4 1.9 3.5.8 6-2.1 5.1-3.1-.9-3.4-1.2-2-2.6 1.5-1.5 1.6-5.5.1-6.4-1.5-.9-4.8 3.4-4.9 6.1 0 1.1-2 5.9-4.4 10.6-2.4 4.8-4.9 10.3-5.5 12.2-1.8 5.4-3.3 6.2-8.1 4.3-2.2-.9-4.2-1.6-4.4-1.6-.2 0-3.5 3.9-7.2 8.7-3.8 4.7-7.9 9.6-9.2 10.8-1.2 1.2-2.2 2.5-2.2 2.9 0 .4-.4 1.2-1 1.9-4.2 5.1-10.2 13.2-13.7 18.2-2.2 3.3-5.8 7.9-7.9 10.2-3.4 3.6-9 12.3-8.2 12.7.2.1 1.9 1.3 3.8 2.7 1.9 1.4 5.1 3.1 7.1 3.8 1.9.6 5.9 2.7 8.8 4.6 3 1.9 6.7 3.7 8.3 4 5 1.1 4.9 2-1.7 13-10.6 17.9-19.7 39.5-27.1 64-1.5 4.9-3.3 9.9-4 11-1.6 2.5-4.3 9.7-5.4 14.5-.5 1.9-1.4 5.3-1.9 7.5-3 11-5 38.2-3.6 47.7.7 4.6 2.5 6.7 2.5 3 0-5.9 7.3-26.6 12.5-35.2 1.8-3 4.3-7.5 5.6-9.9 1.3-2.4 2.9-4.3 3.4-4.3.6.1 1.3 7.9 1.7 19.4.8 23.5 4.1 38.9 11 50.3l1.8 3v-4c0-6.9-.4-6.8 20.1-5.9 10.1.5 19.5.9 20.8.9 2 0 2.7-.8 3.7-4 .6-2.2 3.6-11.8 6.5-21.3 2.8-9.4 5.5-17.2 5.9-17.2.9 0 1.9 11.5 2.7 30.5.3 8.2.9 15.9 1.3 17 .5 1.2 3.1 3 6.6 4.4 3.3 1.3 7.4 3.5 9.2 4.8 4.2 3.1 11.2 12.6 11.2 15.2 0 1.2-1.9 5.1-4.2 8.8-2.2 3.8-5.4 10.4-7.1 14.8-6.7 18.2-7.8 22.1-5.8 20 .5-.6 1.4-2.6 1.9-4.5 4.1-14.1 11-28.5 16.6-34.7 7.8-8.7 26.1-15.7 50.4-19.3 8.2-1.2 8.2-1.2 12 1.4 5.4 3.7 8.2 6.5 8.2 8 0 .8-2.5 2.6-5.6 4.1-5.6 2.8-7.4 5.2-7.4 10.1 0 2.6 6.2 15.8 8 16.9 1.8 1.1 1.1 3.1-3 8.2-2.2 2.8-4.4 6.2-4.9 7.7-1.9 4.9.4 2.6 4.7-4.7 3.1-5.2 5.4-7.9 8-9.3 2-1 7.4-4.7 11.9-8.2 11.9-9 12.8-8.5 5.8 3.2-5.4 9.2-10.5 19.2-10.5 20.6 0 2.7 1.9.3 5.8-7.2 7.5-14.6 15.8-28.8 17.6-30 .6-.4 1.5 0 1.9.8 1.1 2-3.9 26.1-7.4 35.1-.6 1.7-.5 2.3.6 2.3 1.5 0 1.9-1 3.4-9 .6-3 1.8-8 2.6-11s1.8-7.9 2.2-10.8c.7-6.1 1.5-6.9 4.9-5.1 3.4 1.8 6.4 7 6.6 11.4.1 3.9 1.2 5.4 2.2 3 .9-2.5 2.2-1.7 6.5 3.9 6 7.7 9 8.3 11 2.3l1.1-3.2-1.8 2.4c-1.3 1.6-2.5 2.1-3.9 1.7-1-.3-6.1-5.8-11.2-12.2-9.2-11.6-9.2-11.7-8.9-16.8l.3-5.1 3.5.3c5.9.5 20.1 8.1 23.4 12.5 1.8 2.4 1.9 3.3 1 7.7-1.4 6.8-.3 7.4 1.7.8 1.9-6 1.1-9-3.6-12.6-1.4-1.1-2.5-2.5-2.5-3.1 0-.6 2.1-2.2 4.8-3.5 2.6-1.4 6.7-3.9 9.2-5.5 2.5-1.7 5.7-3.1 7.1-3.1 1.5 0 8.2 1.1 14.9 2.5 6.7 1.4 12.8 2.4 13.4 2.1.6-.2.4-.5-.4-.5-3-.2-9-2.2-9-3.1 0-.4 2.1-2.1 4.8-3.6 7.4-4.3 16.6-11.6 26-20.5 4.7-4.5 8.8-7.7 9-7 .2.6-1.1 3.7-2.9 6.9-1.8 3.1-3.7 6.6-4.3 7.7-.6 1.1-2.8 4.5-4.9 7.6-4 6.1-4.7 9.5-1.9 10.3 4.1 1.2 27.8 5.6 30.4 5.6 4.4 0 6.2-1.3 11.7-9 4.9-6.7 7.1-8 7.1-4.1 0 .9-.5 2.2-1.1 2.8-.6.6-.9 1.7-.7 2.4.3.8 2.1-1.2 4.1-4.3 2.7-4.2 4.9-6.4 8.4-8.2 9.6-4.8 22.8-19.8 31.9-35.9 4.7-8.4 14.4-39.3 18.8-59.7 3.5-16.3 4.4-24.4 6.1-60 .9-17.3 2-31.9 2.4-32.3.4-.4.2-5.1-.6-10.5-1.3-9.3-1.4-18.4-.1-15.2 1.3 3.3 4.8 19.3 4.8 22 0 2.5.6 3.2 4.6 5 2.6 1.1 6.4 2 8.5 2h3.9v-85.9l-3.5-.7c-1.9-.3-4.2-.3-5.1 0-.8.3-2.5-.1-3.7-.9-1.2-.8-3.5-1.5-5.2-1.5-5.2 0-19.1-4.5-21.8-7.1-1.4-1.3-3.5-4.9-4.7-7.9-1.2-3-3.5-8-5.2-11-1.7-3-4.2-7.5-5.6-10-2.3-4.3-11.1-18-12.2-19-.3-.3-2.5-3.2-5-6.5-17.5-23.2-39.3-39.7-68-51.9-5.2-2.2-19.5-5.7-32.8-8.1-9.3-1.7-13.7-3.9-11.1-5.6.8-.4 1-1.1.6-1.5-.8-.9-3.9 1.5-3.2 2.6.6 1-9.4 2.1-12.3 1.4-1.7-.5-2.1-1.1-1.6-2.6.3-1.1.7-3.1.9-4.4.2-2.3 0-2.4-6.6-2.4-4.4 0-6.9.4-6.9 1.1 0 .6.9.9 2 .6 1.3-.3 2 0 2 .9 0 .8-.6 1.4-1.3 1.4-.7 0-1.3 1.2-1.2 2.7 0 2.6-.3 2.8-4.2 3.1-4.4.3-5.6-1.1-3.2-3.5.6-.6.9-2.3.5-3.6-.5-2.3-1.1-2.5-7-2.6-3.7-.1-6.8.3-7.1.9zm70.3 17.7c-1.6.2-4 .2-5.5 0-1.6-.2-.3-.4 2.7-.4s4.3.2 2.8.4zm18.2 4c3.5.9 6 2.2 6 3 0 .7 1.1 1.3 2.6 1.3 1.4 0 3.7.9 5.1 2 1.4 1.1 3.4 2 4.4 2 1.1 0 1.9.5 1.9 1 0 .6 2 2 4.5 3.2 2.5 1.2 4.5 2.5 4.5 2.9 0 .4-1.6 1-3.6 1.3-3.8.8-5.9-.3-6.9-3.4-.4-1.4-2.1-1.9-7.5-2.4-3.9-.4-7-1.1-7-1.6s-1.6-1-3.7-1.2c-3-.2-3.7-.7-4-2.8-.2-1.4-1.2-3.2-2.3-4.2-4-3.2-2.6-3.5 6-1.1zm39.2 21c1 .9 1.8 2 1.8 2.5 0 1.6-1.8.8-3.4-1.7-1.9-2.9-1.1-3.3 1.6-.8zM148 45.5c0 .2-.9.9-2 1.5-1.6.9-1.8.8-1.4-.5.5-1.3 3.4-2.2 3.4-1zm227.6 4c.7 1.7-1.4 4.8-2.6 4-.4-.3-.7-1.6-.7-3 0-2.8 2.4-3.5 3.3-1zm5.4 6.4c0 .5 1.4 1.4 3 2 1.7.5 3 1.4 3 2 0 1.1-1.6.9-5.2-.9-2.7-1.3-3.9-4-1.8-4 .6 0 1 .4 1 .9zm15.3 13.5c1.8 1.4 1.8 1.4 0 1.8-1.4.3-.8 1 2.6 3.3 2.4 1.6 3.8 3.1 3.2 3.3-.8.3-.8.9 0 2.4.6 1.1 1.3 1.7 1.6 1.4 1-.9 3 1.9 3.8 5.2.3 1.8 1.1 3.2 1.6 3.2s.9.7.9 1.5.8 1.5 1.8 1.5c1.8.1 7.2 7.7 7.2 10.3 0 .9.6 2 1.3 2.4.7.4 2.1 3 3.1 5.8 1 2.7 2.3 5.4 2.7 5.9.5.6.9 1.8.9 2.7 0 .9.7 2.2 1.5 2.9.8.7 1.5 1.6 1.5 2.1 0 1.4-5.4 1-7.6-.5-1-.8-2.9-1.2-4.1-.9-1.6.3-2.3.1-2.3-1 0-.8-.3-3.5-.6-6.1-.6-3.8-.4-4.6 1-4.6.9 0 1.6-.7 1.6-1.6 0-1.1-.6-1.5-2-1.1-2.2.6-4.5-2.5-3.6-4.8.8-2.1-6.3-9.7-8.4-9-1.4.5-1.9-.2-2.4-3.7-.9-5.9-3-11.6-4.7-13.1-.8-.6-2.2-2.1-2.9-3.2-1.4-1.9-1.4-1.9.3-.6 2.6 2 3.2.6.8-1.8-1.3-1.3-1.6-2.1-.8-2.2 1 0 1-.2 0-.6-1.4-.5-1.8-2.3-.5-2.3.4 0 1.5.7 2.5 1.4zM201.9 81.2c-1.7 3.4-1.9 3.4-1.9.5 0-1.8.5-2.7 1.5-2.7 1.3 0 1.4.4.4 2.2zm10.1-1.8c0 .3-.4.8-1 1.1-.5.3-1 .1-1-.4 0-.6.5-1.1 1-1.1.6 0 1 .2 1 .4zm-74.2 21.7c1 1.5 1.1 2.4.3 3.2-.6.6-1.1 1.7-1.1 2.5 0 1.5-4.4 7.2-6.6 8.5-.8.4-2.3.3-3.4-.3-3.5-1.9-2.6-8.7 1.9-14.3 2-2.5 7.3-2.2 8.9.4zm28.6 2.1c2.3 3.2 2 7.6-.9 13-4 7.6-9 11.8-13.9 11.8-3.2 0-4.7-11.9-2.2-16.5 5.1-9.4 13.4-13.4 17-8.3zM137 117c0 .5-.5 1-1.1 1-.5 0-.7-.5-.4-1 .3-.6.8-1 1.1-1 .2 0 .4.4.4 1zm72 2c0 .5-.5 1-1.1 1-.5 0-.7-.5-.4-1 .3-.6.8-1 1.1-1 .2 0 .4.4.4 1zm204 19.9c0 6.2-.2 6.9-2.6 8.1-2.2 1.2-2.9 1.2-5.2-.2-3.5-2.1-6.4-11.7-4.4-14.8.7-1.1 1.2-2.6 1.2-3.3 0-.9 1.2-1.1 4-.9 2.9.3 4 0 4-.9.1-.8.7.1 1.5 2 .8 1.8 1.5 6.4 1.5 10zm7.3-8.9c.3 1.1.1 2.3-.4 2.6-.5.3-.9-.6-.9-2 0-3.1.6-3.4 1.3-.6zm-197.6 5.2c.3 3.8-.1 5.4-2.3 8.8-2.7 4-6.8 7-9.7 7-2.2 0-4-4.4-3.5-8.9.2-2.9 0-4.1-1-4.1-.7 0-1-.5-.7-1 .4-.6 1.1-.8 1.6-.5.5.4 2.5-1 4.3-3 3-3.1 4-3.6 7.2-3.3 3.7.3 3.8.4 4.1 5zm53.3.4c0 .8-.4 1.2-1 .9-.5-.3-1-1-1-1.6 0-.5.5-.9 1-.9.6 0 1 .7 1 1.6zm42.8 5.8c.2 3.2-.2 6.4-.7 6.9-.6.6-1.1 1.9-1.1 2.9 0 1.6-3.4 3.8-6 3.8-1.4 0-5-6.9-5-9.6 0-3.1 2.5-8 4.7-9.3 1-.6 3.2-1 4.8-.8 2.9.2 3 .3 3.3 6.1zm-227.1-1.2c-.3.7-.5.2-.5-1.2s.2-1.9.5-1.3c.2.7.2 1.9 0 2.5zm248.4 4.3c.2 5.6-.3 9-1.8 11.8-1.2 2.3-2 2.8-4.6 2.5l-3.2-.3-.3-6.7c-.4-8.8.5-10.3 5.7-10.3 3.9 0 4.1.1 4.2 3zm-49.6 4.2c5 20.1 5.6 28.5 2.9 38.1-3.3 11.9-8.7 27.9-11.1 32.5-1.3 2.7-2.3 5-2.1 5.2.6.6 16.3-19.6 19.2-24.8 2.9-4.9 5.2-6.3 4.3-2.5-1.3 5.5-8.3 22.3-14.2 34-3.5 7.1-6 12.8-5.6 12.8 1.3 0 26.7-26.4 29.6-30.8 3-4.5 4.5-5.3 4.5-2.4 0 2.2-5.9 16.6-9.4 22.8-2.7 4.7-2.6 7.6 0 3.9 1.9-2.7 8.6-9.5 9.4-9.5.3 0 2.3-2.5 4.5-5.6 2.2-3.1 4.9-6.8 6.1-8.3 1.1-1.4 4.2-6.1 6.8-10.4 5.5-8.9 5.7-8.9 16-5.2s9.8 2.8 9.3 18.4c-.3 7.5-.1 12.7.3 11.6.7-1.8 3.4-13.2 4.6-19.3.3-1.4 1.2-2.2 2.4-2.2 2.3 0 2.4-.4 1-3-1.3-2.4-.1-19.2 1.3-18.7 2.8.9 9.7 27 9.7 36.6 0 8.1-3.3 28.3-6.5 40-1.9 7.1-8 24.3-11.4 32.6-7.9 18.9-16.5 36.5-22.7 46.9-11.2 18.5-23.7 35.6-27.5 37.6-2.4 1.3-20.8 5.5-35.3 8-11.6 2.1-14.2 3-8.3 3 2 0 3.9.5 4.3 1.2.9 1.4-4.3 5.8-12.1 10-5.4 2.9-6.8 3.2-13.6 3.1-8.7-.2-14.9-2.3-24.1-8.5-5.1-3.4-5.8-4.3-5.8-7.2 0-2.5.5-3.5 1.9-3.9 1.1-.2 2.3-.1 2.8.3 1.5 1.5 21.6 5.1 20.2 3.6-.3-.3-3-1-5.9-1.6-10.5-2-29.5-11-45.1-21.2-9.6-6.3-27.2-19.8-30.6-23.4-7-7.5-11.4-17-24-52.4-1.1-3-3.6-10.7-5.6-17-2-6.3-4.3-13.8-5.2-16.5-.9-2.8-2.8-9.6-4.1-15.2l-2.6-10.3 3.4-5.7c5-8.7 5-8.7 9.8-15.2 2.5-3.3 4.8-6 5.3-6 1-.1.9 5.2-.4 14.6-.6 4.5-.9 9.1-.7 10.4.3 2 .8 1.5 2.9-3.1 6.4-13.6 35.3-51.9 37.5-49.7.4.4-.6 3.5-2.3 7-1.7 3.4-3.6 7.8-4.3 9.7-.8 1.9-1.6 3.9-2 4.5-1.2 1.9-2.9 9.1-4.4 19.5-1.9 12.5-2 14-.5 14 1.3 0 3.5-2.7 10.8-13.4 3-4.4 9.1-12.8 13.4-18.6 7.4-9.7 10.7-12.8 10.7-10 0 2-6.1 13.1-12.1 22.3-3.3 4.9-5.8 9.1-5.6 9.3.5.6 13.7-10.7 17.6-15.1 2-2.2 6.8-7.3 10.7-11.3 6.9-7.1 7.1-7.2 12.1-7.2 3.5 0 5.3.5 5.6 1.4.6 1.6-5.4 13.6-7.8 15.6-.8.7-1.5 1.8-1.5 2.4 0 .7-.8 2.1-1.8 3.2-3.2 3.6-11.5 16.5-10.9 17 1.9 1.9 31.8-30 39.5-42 3.6-5.7 6.4-6.5 3.8-1-.8 1.6-2.6 5.6-4.1 8.9-4.4 9.5-14.6 26.4-17.1 28-1.2.8-3.2 2.9-4.5 4.7-3.1 4.4-1.5 3.2 12-9.2 10-9.1 20.7-21.1 28.1-31.6 1.9-2.7 5.1-7.1 7.1-9.9 1.9-2.7 4.4-6.8 5.6-9 1.1-2.2 3.2-6.3 4.7-9 1.4-2.8 3.6-7.1 4.7-9.8 1.2-2.6 2.7-4.7 3.4-4.7.8 0 2 2.7 3 6.7zm175.5 1.1c3.5 2 3.3 4.3-1 8.3-1.5 1.4-2.9 3.2-3.2 4-1 2.8-1.7.3-1.9-7.6-.3-8.6.8-12.6 2.2-8.6.5 1.2 2.2 2.9 3.9 3.9zm-228.5 15.9c-2.7 7.3-8.1 17.8-9.9 19.2-1.3 1.1-2 1.1-4.1-.3-3.3-2.1-3.2-3.1.8-7.6 1.7-2 5.7-6.6 8.7-10.3 3-3.6 5.7-6.4 5.9-6.2.2.3-.4 2.6-1.4 5.2zm119.9 8.8c2.2 10.4 3.1 23.5 1.7 23.5-2.7 0-15.5-4.1-16.2-5.2-.9-1.4 1.2-6.8 3.8-10.2 1-1.2 2.9-5.7 4.3-9.9 3-9.1 4.2-8.8 6.4 1.8zM466 173c.9 1.6.8 2.5-.1 3.6-1.8 2.1-2.3 1.8-3.7-2.6-1.8-6-1.6-7.4.7-5.1 1.1 1.1 2.5 2.9 3.1 4.1zm-256 5c0 .5-.4 1-1 1-.5 0-1-.5-1-1 0-.6.5-1 1-1 .6 0 1 .4 1 1zm-8.3 5.2c-.3.8-.6.5-.6-.6-.1-1.1.2-1.7.5-1.3.3.3.4 1.2.1 1.9zm-8.7-.8c0 .3-.4.8-1 1.1-.5.3-1 .1-1-.4 0-.6.5-1.1 1-1.1.6 0 1 .2 1 .4zm64 2.1c-.7.8-1.6 1.2-2.1.9-1.3-.8-.1-2.4 1.8-2.4 1.3 0 1.3.3.3 1.5zm108 5.7c0 3.4-.4 4.8-.9 3.8-.8-1.4-.3-9 .5-9 .2 0 .4 2.4.4 5.2zm-67.4 5.4c-1.2 3.1-2.3.3-1.2-3.2 1-3.4 1.1-3.4 1.4-.9.2 1.5.1 3.3-.2 4.1zm37.7-5.9c-.7.2-1.9.2-2.5 0-.7-.3-.2-.5 1.2-.5s1.9.2 1.3.5zm133.7 3.9c0 3.2-2.8 3.1-4-.2-1.3-3.3-1.4-3.2 1.5-2.6 1.8.3 2.5 1.1 2.5 2.8zm-238.9 2.7c-.8.8-1.1.7-1.1-.4 0-2 1.3-3.4 1.8-1.9.3.7-.1 1.7-.7 2.3zm-52.1.3c0 .8-.5 1.2-1 .9-.6-.4-.8-1.1-.5-1.6.9-1.4 1.5-1.1 1.5.7zm268 2.9c0 .5-.5.3-1-.5s-1-2-1-2.5c0-.6.5-.3 1 .5s1 1.9 1 2.5zm-219 .6c-.7 1.1-1.4 1.9-1.6 1.6-.7-.7.7-3.7 1.7-3.7.6 0 .5.9-.1 2.1zm91.5-1.1c-.3.5-1 1-1.6 1-.5 0-.9-.5-.9-1 0-.6.7-1 1.6-1 .8 0 1.2.4.9 1zM174 200.4c0 .3-.4.8-1 1.1-.5.3-1 .1-1-.4 0-.6.5-1.1 1-1.1.6 0 1 .2 1 .4zm120 1.6c0 .5-.5 1-1.1 1-.5 0-.7-.5-.4-1 .3-.6.8-1 1.1-1 .2 0 .4.4.4 1zm20 2.5c-1.3 1.4-2.5 2.3-2.8 2.1-.7-.8.9-4.6 1.8-4.1.5.3 1.2 0 1.5-.6.4-.5 1-.8 1.3-.5.3.4-.5 1.7-1.8 3.1zm14 .5c-1.1 1.1-2.4 2-3 2-.5 0-1-.9-1-2 0-1.6.7-2 3-2h3l-2 2zm-19.9 8.3c-1.3 1.3-1.5-.1-.4-3 .7-1.7.8-1.7 1.1.1.2 1-.1 2.3-.7 2.9zm14.9 1.1c-.6 2-1.6 3.6-2.1 3.6-1.2 0-1.2-.1.7-4.5 1.9-4.6 3-3.9 1.4.9zm150.6.6c.1 3.8 0 3.9-2.5 3.3-3.8-.9-4.1-1.2-4.1-3.7 0-2.9.7-3.6 3.9-3.6 2.4 0 2.6.4 2.7 4zM305 217.5c0 .8-.4 1.5-1 1.5-.5 0-.7-.7-.4-1.5.4-.8.8-1.5 1-1.5.2 0 .4.7.4 1.5zM448 228c1.6 13.4 1.7 24 .3 45-2.1 32.2-6.9 54.2-18.5 84.5-5 13-10.1 21.8-14.8 25.2-15.3 11.2-17.3 12-15.2 6.6 4.7-12.3 6.7-17.3 8.3-20.4 3.3-6.6 14.9-46.2 22.1-75.4 4.5-18.5 7.5-36.7 9.8-61 .6-6.6 1.6-13.1 2.1-14.4 1-2.4 1-2.4 3-.5 1.4 1.4 2.2 4.3 2.9 10.4zm-335 4.6c0 .8-.5 1.2-1 .9-.6-.4-.8-1.1-.5-1.6.9-1.4 1.5-1.1 1.5.7zm-60.3 9.6c-.3.8-.6.5-.6-.6-.1-1.1.2-1.7.5-1.3.3.3.4 1.2.1 1.9zm373 7c-.3.8-.6.5-.6-.6-.1-1.1.2-1.7.5-1.3.3.3.4 1.2.1 1.9zm7.5 5c-.9.9-1.2.7-1.2-1.2s.3-2.1 1.2-1.2c.9.9.9 1.5 0 2.4zM42.8 265.9c-1.9 3.8-2.4 4.2-2.6 2.2-.2-1.2.6-4.2 1.7-6.7 1.2-2.4 2.2-4.9 2.3-5.6 0-.7.3.2.5 2.1.3 2.3-.3 4.9-1.9 8zm338.9-4.7c-.3.8-.6.5-.6-.6-.1-1.1.2-1.7.5-1.3.3.3.4 1.2.1 1.9zm-2.7 3c0 .7-.5 2-1 2.8-.8 1.2-1 .9-1-1.3 0-1.5.5-2.7 1-2.7.6 0 1 .6 1 1.2zm-252.8 1.7c.9 1 1.9 3.4 2.3 5.2.4 1.9 1.4 4.3 2.1 5.4.8 1.3 1 2.5.4 3.5-.7 1.2-1.4 1-4-1.5-5-4.8-3.4-1.3 2.5 5.5 4 4.6 6 8 7.1 12 .9 3 3 8.8 4.6 12.8 4.3 10.4 2.8 12.3-6.7 8.2-7.2-3.1-13.1-7.8-17.2-13.8l-3.8-5.4v-11.2c.1-9.6.4-11.8 2.4-15.6 3.6-7.1 7.1-8.8 10.3-5.1zm-90.1 10.7c-.9 2.8-.9 2.9-1 .3-.1-1.4.2-2.9.6-3.2 1.1-1.2 1.3-.2.4 2.9zm336.6 5.6c-.3.7-.5.2-.5-1.2s.2-1.9.5-1.3c.2.7.2 1.9 0 2.5zM36 291.7c0 .5-.5 1.5-1 2.3-.8 1.2-1 1.1-1-.8 0-1.2.5-2.2 1-2.2.6 0 1 .3 1 .7zm-4 11.8c0 .8-.4 1.5-1 1.5-.5 0-1-.7-1-1.5s.5-1.5 1-1.5c.6 0 1 .7 1 1.5zm324.7 17.2c-.3 1-.5.4-.5-1.2 0-1.7.2-2.4.5-1.8.2.7.2 2.1 0 3zm60.4 7c-1.2 2-1.4 1.4-.5-1.2.4-.9.9-1.4 1.1-1.1.3.2 0 1.3-.6 2.3zM28 329.1c0 .5-.7.9-1.5.9-1.5 0-2-1.2-.9-2.3.8-.8 2.4.1 2.4 1.4zm-3.3 5.6c-.3 1-.5.4-.5-1.2 0-1.7.2-2.4.5-1.8.2.7.2 2.1 0 3zm324.3 1.7c0 .8-.7 1.6-1.5 2-1.3.4-1.4.2-.5-1.4 1.3-2.3 2-2.6 2-.6zM24 339c0 .5-.5 1-1.1 1-.5 0-.7-.5-.4-1 .3-.6.8-1 1.1-1 .2 0 .4.4.4 1zm386 4.9c0 .6-.4 1.3-1 1.6-.5.3-1-.1-1-.9 0-.9.5-1.6 1-1.6.6 0 1 .4 1 .9zm-390.4 3.8c-1.1 1.1-1.9-.6-1.1-2.4.8-1.7.8-1.7 1.2 0 .3 1 .2 2.1-.1 2.4zm-5 7.5c.3.4-.1 2.1-.9 4-.8 1.8-2 4.6-2.5 6.3-1 2.7-1 2.5-1.1-2.7-.1-3.1.2-6.3.5-7.1.5-1.5 2.7-1.7 4-.5zM337 368c0 .5-.2 1-.4 1-.3 0-.8-.5-1.1-1-.3-.6-.1-1 .4-1 .6 0 1.1.4 1.1 1zm-10.5 10.9c.3.5.1 1.2-.5 1.6-.5.3-1-.1-1-.9 0-1.8.6-2.1 1.5-.7zm2.5 7.6c-1.2 3.2-9.4 15.2-15.7 23-6.4 7.9-9.8 9.6-18.8 9.3l-7-.3v-3c0-2.7.7-3.3 6.1-6 3.4-1.7 8.5-4.8 11.5-6.9 3-2.2 6.9-5 8.8-6.3 1.8-1.2 5.8-4.5 8.8-7.3 6.1-5.6 7.7-6.3 6.3-2.5zm-14 1c0 .8-.4 1.5-.9 1.5-1.3 0-2.2-1.6-1.4-2.4 1.1-1.1 2.3-.6 2.3.9zm-94.4 9.9c5.8 3.9 13.9 8 18.1 9.1 1.5.4 5.7.7 9.2.6 6.9-.1 13.3-2.7 20.1-8.1 2.1-1.7 4.5-3 5.3-3 1 0 3.4 3.7 6.4 10.1 4.8 9.9 4.9 10.1 3.2 12.8-2.7 4.5-10.5 8.5-16.9 8.7-3 .1-5.9-.1-6.5-.5-.5-.5-2.3-1.1-3.9-1.5-1.7-.4-5.6-2.1-8.9-3.7-6.4-3.2-15.2-4.2-12.4-1.5 1 1 1.3 3 1 6.8-.5 5.5-2.5 9.4-5.8 11.2-1.1.6-5 3.3-8.7 6.1-15.8 11.7-15.9 11.8-18.2 10.7-1.2-.5-2.6-2-3.2-3.3-5.2-11.1-5.6-16-1.4-19.1 2.5-1.8 14-6.2 26.3-10 3.7-1.2 6.7-2.4 6.7-2.8 0-1-8.6.6-13.3 2.5-6.1 2.4-8.9 1.9-14.1-2.6-2.5-2.2-4.6-4.5-4.6-5.1 0-.5 2-3.7 4.5-6.9 2.5-3.3 4.5-6.3 4.5-6.7 0-1.9 4.2-7.2 5.7-7.2 1 0 4.1 1.5 6.9 3.4zm180.4-.1c0 .2-1.5 1.6-3.2 3.3-2.7 2.4-2.9 2.5-1.3.4 2.4-3 4.5-4.7 4.5-3.7zm-235 17.5c-1.6 2.8-5 4.3-5 2.2 0-.7 1-2.4 2.3-4 2.8-3.5 4.9-2.2 2.7 1.8zm204.6 5c-1.7 1.8-2.6 2.2-2.6 1.2 0-1.8 4.4-6.1 4.9-4.7.2.5-.8 2.1-2.3 3.5zm-129.2 7.4c.3 3.4 0 5.1-1.1 5.9-2.1 1.8-3.2-.4-2.6-5.5 1-8.4 2.9-8.6 3.7-.4z"/><path d="M400.5 84c.3.5.8 1 1.1 1 .2 0 .4-.5.4-1 0-.6-.5-1-1.1-1-.5 0-.7.4-.4 1zM201 255c-1.7.6-.2.8 5.3.9 4.5.1 7.7-.3 7.7-.9 0-1.2-9.4-1.2-13 0zM186.5 263c-12.9 2.2-14.6 2.7-20.2 6-4.7 2.7-5 3.4-2.9 5.6 1.3 1.2 2.7 1.2 10.8-.7 6.9-1.6 13.7-2.3 26.6-2.7l17.2-.4V267c0-2.6-.5-4-1.6-4.4-4.2-1.6-19.4-1.4-29.9.4zM308.5 272.1c.5 1.3.2 2.5-.6 3-2.2 1.3-.9 1.7 9.6 2.8 6.8.8 12.3 2.1 17 4 7.8 3.3 16.2 7.8 17 9.2 1.2 1.9 3.5.9 3.5-1.5 0-1.3.6-2.6 1.3-2.9 2.4-.8-2.7-4.9-11.3-8.9-10.9-5.1-21.5-7.8-30.2-7.8-6.6 0-6.9.1-6.3 2.1zM250.2 330.7c-1.9.7-5.2 7.8-5.1 11 0 2.4.3 2.2 1.7-1.7 2.4-6.4 2.9-7 6.3-7 5.1 0 7 3 8.2 13.5.2 1.6.5.1.6-3.4.1-5.9-.1-6.5-3.3-9.7-3.2-3.2-5.4-3.9-8.4-2.7zM244.3 350c0 3 .2 4.3.4 2.7.2-1.5.2-3.9 0-5.5-.2-1.5-.4-.2-.4 2.8zM260 354c0 1.7-.9 4.9-2 7-1.1 2.2-1.6 4-1 4 1.4 0 3.7-4.9 4.5-9.8.4-2.8.3-4.2-.4-4.2-.6 0-1.1 1.4-1.1 3zM261.8 389.7c.7.3 1.6.2 1.9-.1.4-.3-.2-.6-1.3-.5-1.1 0-1.4.3-.6.6zM282.2 1.2c-1.6 1.6-1.5 4.1.1 3.5.6-.2 1.1-1.3.9-2.3-.2-1.8-.2-1.8 1.2-.1 1.4 1.8 1.4 1.8 1.9 0 .4-1.6.6-1.5 1.2.4.4 1.3 1.1 2.3 1.5 2.3.8 0 2-2.4 2-4.1 0-1.3-7.4-1.1-8.8.3zM394 1.5c0 .9.6 1.2 1.5.9.8-.4 1.5-1 1.5-1.5s-.7-.9-1.5-.9-1.5.7-1.5 1.5zM402 2.8c0 5.4 4.2 7.5 12.3 6.3.4-.1.7-.8.7-1.6s.4-1.5.8-1.5c.5 0 .9-1.4.9-3V0H402v2.8zM423.2 3c.1 4 4.1 7.9 7.5 7.6 3.7-.4 7.3-4.2 7.3-7.7V0h-14.9l.1 3zM443.4 1.5c-.3.8.3 2.9 1.3 4.7 3.6 6.3 13.1 3.8 13.1-3.5 0-2.7-.1-2.7-7-2.7-5.1 0-7 .4-7.4 1.5zM463.6.7c-.8.9-.7 5.6.2 7 1 1.6 5.7 2.6 8.7 1.9 2.2-.6 2.5-1.2 2.5-5V.1h-5.4c-3 0-5.7.3-6 .6zM375 2.5c0 .8.5 1.5 1 1.5.6 0 1-.7 1-1.5s-.4-1.5-1-1.5c-.5 0-1 .7-1 1.5zM383.1 2.6c0 1.1.3 1.4.6.6.3-.7.2-1.6-.1-1.9-.3-.4-.6.2-.5 1.3zM41 4.5c0 .8.5 1.5 1 1.5.6 0 1-.7 1-1.5S42.6 3 42 3c-.5 0-1 .7-1 1.5zM53.6 5.5c-1.1 2.9-.7 3.7 1 2 1.1-1.1 1.3-2 .7-2.6-.7-.7-1.2-.5-1.7.6zM134 5.6c0 .8.5 1.2 1 .9.6-.3 1-1 1-1.6 0-.5-.4-.9-1-.9-.5 0-1 .7-1 1.6zM394 6.6c0 2.2.2 2.5 1.5 1.4.8-.7 1.5-1.9 1.5-2.6 0-.8-.7-1.4-1.5-1.4-1 0-1.5 1-1.5 2.6zM292.6 6.9c-.4.7-.5 1.5-.2 1.8.9.9 1.9-.4 1.4-1.8-.4-1.1-.6-1.1-1.2 0zM388 10c1.9 1.3 3 1.3 3 0 0-.6-1-1-2.2-1-1.9 0-2 .2-.8 1zM24 16c0 2 .5 2.5 2.7 2.7 1.9.1 2.2-.1 1.2-.8-1-.6-1-.9-.1-.9.6 0 1.2-.7 1.2-1.5s-.7-1.5-1.5-1.5-1.5.6-1.5 1.2c0 .9-.4.8-1-.2-.8-1.2-1-1-1 1zM43 17.2c-2.7 3.6-2.5 6.9.5 10.2 3 3.3 6.4 3.3 9.9.1 3.1-2.9 3.4-6.6.6-10.5-2.8-3.9-8-3.8-11 .2zm11.5 1.7c.3.5.1 1.2-.4 1.5-.5.3-1.1-.1-1.5-.9-.6-1.6.9-2.1 1.9-.6zM54 23c0 .5-.5 1-1.1 1-.5 0-.7-.5-.4-1 .3-.6.8-1 1.1-1 .2 0 .4.4.4 1zM65.1 14.8c-.5.2-.7 1-.4 1.8.4 1.1 0 1.5-1.3 1.2-1.6-.2-2 .4-2.2 3.8-.3 3.5.1 4.5 2.4 6.3 3.4 2.6 5.4 2.7 8.8 0 1.9-1.5 2.6-3 2.6-5.5 0-3.3-1.3-4.6-2.3-2.2-.4.9-.6.9-.6.1-.1-.6-1.1-.9-2.3-.7-2.1.4-2.1.4-.3-.4l2-.9-2-.5c-1.8-.5-1.8-.6.3-.7 1.2 0 2.2.4 2.2 1.1 0 .9.3.9 1.3-.1s.8-1.4-.8-2.3c-2-1.2-5.5-1.6-7.4-1zM83 17c-3.9 3.8-3.9 7.3-.1 11.1 4 4 5.3 3.9 10.6-.9 2.4-2.2 1.8-7.2-1.2-10.4-3.4-3.6-5.5-3.5-9.3.2zM126.5 14.8c-1.3.9-1.4 9.2-.2 9.2.5 0 .4.6-.2 1.3-.6.8-1 1.6-.8 1.8.1.2-.2.1-.7-.3-.5-.4-.9-2.5-.8-4.7.1-2.9-.2-3.9-1.1-3.5-1.6.6-1.3 7.2.5 9 1.7 1.7 6.9 2.4 8.9 1.1.9-.6 1.5-2 1.3-3.6-.2-1.4-.1-1.8.2-.8 1 3.2 2.5.6 1.8-3.1-.9-5.2-5.8-8.7-8.9-6.4zM130 17c0 .5-.5 1-1.1 1-.5 0-.7-.5-.4-1 .3-.6.8-1 1.1-1 .2 0 .4.4.4 1zM143.5 16.5c-3.2 3.1-3.4 8.6-.4 11.6 1.7 1.7 2.9 2 5.8 1.5 2-.3 4.2-1.3 4.8-2.3 1.7-2.3 1.6-6.8-.2-10.3-2-3.9-6.5-4.1-10-.5zm4.5 2c0 .8-.9 1.5-2 1.5s-2-.7-2-1.5.9-1.5 2-1.5 2 .7 2 1.5zM166.2 16.2c-.2 1-1.2 1.7-2.1 1.6-2.6-.5-2.7 5.6-.1 9.2 2.2 3.1 7.8 4.5 6.7 1.7-.4-1 .2-1.3 1.8-.9 1.7.3 2.5-.2 2.9-1.7.3-1.2.9-3.1 1.2-4.2.4-1.5.3-1.9-.6-1.4-.7.4-1.6.2-2-.6-.6-.9-1.1-.5-1.5 1.4-.4 1.5-1.1 2.7-1.6 2.7-1.4 0-1.1-2.8.4-3.3.9-.4.8-.8-.3-1.6-1.3-1-1.3-1.1 0-1.2.8-.1 2.1-.1 2.8 0 .6.1 1.2-.1 1.2-.4 0-3.1-8-4.2-8.8-1.3zM388 15.5c.7.8 1.6 1.5 2 1.5.4 0 1-.7 1.4-1.5.4-1.1-.2-1.5-2.1-1.5-2.1 0-2.4.2-1.3 1.5zM406.3 15.2c-2.3 1.1-3.2 3.8-1.3 3.8.6 0 .9.3.9.7-.4 2.2.3 2.4 2.1.8 2.4-2.2 3.6-1.4 2.1 1.4-.9 1.6-.8 2.2.8 3.1 1.6.8 2.1.6 2.6-1 .8-2.5 2.2-2.6 2.8-.3.3 1 .5.4.6-1.3.1-3.8-1.9-5.9-3.9-4.1-1.2 1-1.2.9-.2-.5 1.1-1.3 1-1.8 0-2.4-2-1.3-4.1-1.3-6.5-.2zM425.7 16.3c-1 1.2-2.1 3.3-2.4 4.6-1.5 5.8 6.8 11.3 11.8 7.7l2.3-1.6h-2.2c-1.2 0-2.2-.5-2.2-1.1 0-.6.9-.9 1.9-.6 3.6.9 4.2-4.6 1-8.7-2.7-3.4-7.6-3.6-10.2-.3zM446.2 16c-4.6 4.4-1.6 14 4.4 14 3.3 0 7.4-4.7 7.4-8.6 0-2.6-.7-3.6-3.4-5.3-4.2-2.6-5.7-2.6-8.4-.1zM465.2 16c-2.2 2.1-3.3 8.8-1.2 7.5.6-.4 1 .5 1 2 0 3.5 4 5.4 7.5 3.5 2.2-1.2 2.5-2 2.5-7 0-3.1-.5-6.1-1.2-6.8-1.8-1.8-6.2-1.4-8.6.8zM108.2 16.7c2.4 2.8 3.3 4.7 1.8 3.8-1.5-.9-3 1.1-3 4.4 0 1.7.4 2.2 1.6 1.7.9-.3 2.1-.6 2.7-.6.7 0 2-1.4 3-3.2 1.4-2.5 1.5-3.3.5-3.9-.7-.5-.9-.9-.4-.9 2.4 0-1.7-2.6-4.5-2.8-3-.2-3.2-.1-1.7 1.5zM392.1 16.7c-.9 1-1 1.8-.3 2.5 1.2 1.2 3.2.2 3.2-1.7 0-2.1-1.3-2.5-2.9-.8zM11 16.7c.1.5.7 1.9 1.5 3.3l1.5 2.5-.4-2.5c-.3-1.4-.5-2.8-.5-3.3-.1-.4-.5-.7-1.1-.7-.5 0-1 .3-1 .7zM21.3 18.7c-.7.3-1.3 2.1-1.3 4.1 0 3.6 0 3.6 1.6 1.4 1.7-2.5 1.5-6.1-.3-5.5zM29.3 21c-.7 1-1 2.6-.7 3.3.4 1-.6 1.8-3.3 2.4l-3.8 1 2.7 1.3c5 2.4 10.9-2.1 10-7.8-.4-2.7-3.3-2.9-4.9-.2zM102.5 20c.4.6.1 1.7-.5 2.5-1.2 1.5-.6 3.5 1.1 3.5.5 0 .9-.8 1-1.8 0-1.4.2-1.4.9.3.8 1.8.9 1.8.9-.5.1-1.5-.7-3-2-3.8-1.2-.8-1.8-.9-1.4-.2zM384.2 22c0 1.9.2 2.7.5 1.7.2-.9.2-2.5 0-3.5-.3-.9-.5-.1-.5 1.8zM396.2 23c0 1.4.2 1.9.5 1.2.2-.6.2-1.8 0-2.5-.3-.6-.5-.1-.5 1.3zM403.1 23.6c0 1.1.3 1.4.6.6.3-.7.2-1.6-.1-1.9-.3-.4-.6.2-.5 1.3z"/><path d="M113.5 26.1c-.6 1.8-1.3 2-5.1 1.7-2.4-.2-4.4 0-4.4.4 0 .5.3.8.8.9.4 0 2 .2 3.7.4 3.3.5 7.5-1.8 7.5-4s-1.8-1.8-2.5.6zM404.7 25.7c-1 .9-.9 2.3.1 2.3.5 0 .9-.7.9-1.5 0-1.7-.1-1.8-1-.8zM409.6 28.5c-2.6 2 0 2 3.4 0 2.2-1.3 2.3-1.4.5-1.4-1.1 0-2.9.6-3.9 1.4zM23.2 37.8c-4 3.6-4.1 7-.6 10.6 3 2.9 4.2 3.1 7.8 1.4 4.8-2.1 4.7-10.4-.2-12.9-1.5-.7-2.9-1.5-3.3-1.6-.3-.2-1.9 1-3.7 2.5zm7.8 1.8c0 .8-.4 1.3-.9.9-1.7-1-2 1.1-.5 4 .8 1.5 1.3 2.9 1.2 3-1.2 1-6.7 1.4-7.3.6-.4-.7.6-1.1 2.7-1.2 1.8-.1 2.5-.3 1.5-.6-1.2-.3-1.6-1.1-1.2-2.3.4-1.2-.1-2.3-1.5-3.3-2.5-1.8-1.6-2.7 2.7-2.7 2.3 0 3.3.5 3.3 1.6zM24 44c0 .5-.4 1-1 1-.5 0-1-.5-1-1 0-.6.5-1 1-1 .6 0 1 .4 1 1zM46.4 36.2c-2.8 1.5-5.4 5-5.4 7.4 0 3.2 4.4 7.4 7.9 7.4 3 0 7.1-3.8 7.1-6.7 0-5-5.9-10-9.6-8.1zm7.6 8.3c0 .9-.6 1.2-1.5.9-.8-.4-1.5-1-1.5-1.5s.7-.9 1.5-.9 1.5.7 1.5 1.5zM64.2 37.9c-4 3.7-4.3 7.8-.7 10.9 3.2 2.8 6.1 2.8 9.1-.1 2.2-2.1 3.5-8.5 1.5-7.2-.5.3-1.3 0-1.7-.6-.4-.8-.3-.9.4-.5s1.2.1 1.2-.8c0-1.2-4.6-4.6-6.2-4.6-.2 0-1.8 1.3-3.6 2.9zM409 35.8c0 .7 2 2 6.4 4 .5.3.6-.1.2-.7-1-1.5-6.6-4.4-6.6-3.3zM428.8 36.4c-3.2 1.1-3.3 1.4-1.4 5.2.8 1.5 1.3 3 1.1 3.4-.2.3.9.5 2.4.2 1.6-.2 3.2.1 3.5.7 1.5 2.3 2.6.9 2.6-3.2 0-3.5-.4-4.4-2.8-5.7-2-1.2-3.4-1.3-5.4-.6zM84.5 36.8c-.5.4-1.2 1.6-1.3 2.7-.2 1.1-1.1 2.8-1.9 3.7-1.4 1.5-1.3 2 .7 4.7 2.7 3.9 7 4.2 10.5.6 3.2-3.1 3.2-6.2-.2-9.7-2.6-2.7-5.8-3.5-7.8-2zM104.5 39.2c-4.1 3.9-4.3 5.6-1 9.2 2.7 2.9 7 3.4 10.1 1.2 1.6-1.3 1.7-1.8.7-3.5-1.5-2.4-1.7-3.4-.4-2.7 1.2.8 2.2-2 1.4-4-.5-1.4-4.2-3.4-6.3-3.4-.5 0-2.5 1.5-4.5 3.2zm9.5 1.3c0 .8-.2 1.5-.4 1.5s-.6-.7-1-1.5c-.3-.8-.1-1.5.4-1.5.6 0 1 .7 1 1.5zM126.3 36.7c-.7.2-1.3 1.1-1.3 1.9 0 .8-.4 1.4-.8 1.4-.5 0-1.4 1.1-1.9 2.3-1.6 3.4 1.9 8.7 5.6 8.7 4.5 0 7.1-2.6 7.1-7.2 0-3.2-.3-3.9-1.5-3.4-1 .3-1.5-.1-1.5-1.3 0-2.5-2.8-3.6-5.7-2.4zM447.3 36.7c-.7.2-1.3 1.1-1.3 1.9 0 .8-.7 1.4-1.5 1.4-1.7 0-2.2 6.5-.6 7.5 1.6.9 3.9-2.3 3.5-4.7-.3-1.5 0-1.3.7.6 1 2.4.9 3.1-.5 4.1-2.4 1.8-1.9 2.8 1.2 2.1 1.5-.3 2.1-.3 1.5 0-1.8.8-1.6 2.4.2 2.4.8 0 1.5-.5 1.5-1 0-.6.5-1 1.1-1 1.7 0 3.8-3.1 3.9-5.6 0-1.1-.7-3.5-1.6-5.2-1.5-3.1-4.4-4-8.1-2.5zm7.7 4.9c0 .8-.4 1.2-1 .9-.6-.4-.7.6-.3 2.6.4 2.4.3 3.1-.7 2.7-2.2-.7-3-4.4-1.4-6.7s3.4-2 3.4.5zM465.2 37.6c-1.5 1-2.2 2.5-2.2 4.8 0 3.3.9 4.8 4.7 8 2.1 1.7 2.3 1.7 4.7-.1 2.2-1.5 2.5-2.6 2.6-7.1 0-4.7-.3-5.3-2.6-6.2-3.5-1.4-4.6-1.3-7.2.6zM416.1 42.6c0 1.1.3 1.4.6.6.3-.7.2-1.6-.1-1.9-.3-.4-.6.2-.5 1.3zM425.6 46.8c-.7 1.2 1.1 2.7 4.4 3.7 1.4.4 2.3.6 2 .4-.3-.2-1.7-1.4-3.1-2.7-1.5-1.3-3-1.9-3.3-1.4zM63.2 58c-2.1 2.7-2.3 5.8-.3 4.5.5-.2 1.9.4 3.1 1.5 1.4 1.2 3.2 1.8 4.7 1.5 1.6-.2 2.3 0 2 .8-.2.7-1.2 1.2-2.3 1.2-2.4 0-4.5 1.7-3.4 2.8.4.5 2.1.2 3.8-.7 5-2.6 5.3-10 .6-13-3.4-2.3-5.6-1.9-8.2 1.4zM82.6 58.2c-1.4 1.7-2.6 3.6-2.6 4.1 0 2.6 4.9 8.7 7 8.7 2.9 0 6.9-3.2 7.5-6 .9-4.2-.2-6.8-3.5-8.5-4.2-2.1-5.4-1.9-8.4 1.7zm4.2 9.7c.3.8-.1 1.2-.9.9-.7-.2-1.5-1-1.7-1.7-.3-.8.1-1.2.9-.9.7.2 1.5 1 1.7 1.7zM126 56c0 .5.5 1 1 1 .6 0 1-.5 1-1 0-.6-.4-1-1-1-.5 0-1 .4-1 1zM467.4 56.2c-.9 1.5.1 2 3.6 1.6l3.3-.3-3.2-1.2c-2-.7-3.3-.8-3.7-.1zM45.4 56.8c-2 1.2-4.5 7-3.4 7.7.6.3 1.3-.1 1.6-1 .6-1.3.8-1.4 1.5-.3.7 1 .9 1 .9 0 0-.6 1.1-1.2 2.4-1.2 2.5 0 5.1-2.2 3.9-3.3-.3-.4 0-.7.8-.8 1.6-.1-2.8-1.7-5.1-1.8-.8 0-2 .3-2.6.7zM105.4 57.1c-3.3 1.6-4.4 5-2.9 8.5 1.7 4 5.7 6.1 9 4.6 3.4-1.6 4-3.5 2.9-9.1-.8-4.2-1.2-4.6-3.9-4.8-1.6-.1-4 .3-5.1.8zm3.3 10.5c-.3.3-1.2.4-1.9.1-.8-.3-.5-.6.6-.6 1.1-.1 1.7.2 1.3.5zM429.5 57c-3 .8-3 .8.8.9 2.3.1 3.6-.3 3.2-.9-.3-.6-.7-.9-.8-.9-.1.1-1.5.5-3.2.9zM448.4 57.1c-1.6.6-1.5.8.8.8 1.4.1 3.4.4 4.4.8 1.1.4 1.5.2 1.2-.7-.5-1.5-3.6-2-6.4-.9zM473.5 60c.3.5.8 1 1.1 1 .2 0 .4-.5.4-1 0-.6-.5-1-1.1-1-.5 0-.7.4-.4 1zM28.3 66c.2.8 1.2 1.6 2.3 1.7 1.3.2 1.5.1.4-.4-.8-.3-1.9-1.1-2.3-1.7-.6-.7-.7-.6-.4.4zM91.5 79.2c.5 2.4 3.5 6 3.5 4.1 0-.6-.7-1.8-1.5-2.6s-1.2-1.7-.9-2c.3-.3.1-.8-.5-1.1-.6-.4-.8.2-.6 1.6zM82 84.5c.7.8 1.7 1.2 2.2.9.6-.4.5-1-.3-1.5-2.2-1.4-3.3-1-1.9.6zM88.3 86.7c.9.2 2.3.2 3 0 .6-.3-.1-.5-1.8-.5-1.6 0-2.2.2-1.2.5zM0 154.7c.1 32.1.4 43.2 1.3 44.3 4.7 5.9 14.9 10.8 17.8 8.6 2-1.6 8.9-10.8 8.9-11.9 0-1 8.9-11.9 10.2-12.5.4-.2 2.1-2.7 3.9-5.5 1.8-2.9 3.8-5.7 4.4-6.2.6-.6 4.4-5.5 8.5-11s8.6-10.9 10-12.2c3.1-2.7 2-4.1-4.3-5.9-8.3-2.4-26-9.3-28.6-11.1-1.4-1.1-5.3-3.3-8.7-5-3.3-1.6-8.1-4.3-10.5-6-2.4-1.6-6.3-4.2-8.6-5.7L0 112v42.7zM325.5 427.5c2.2.9 5.2 2.8 6.8 4.3 2.7 2.4 2.8 2.5 1.8.4-1.5-2.9-4.9-5-9.2-5.7l-3.4-.5 4 1.5zM337 437.2c0 .3 1.3 2.9 3 5.9 3.1 5.7 4 5.5 1.6-.3-1.3-2.9-4.6-7-4.6-5.6zM344.6 453c.4 1.9 1 3.9 1.4 4.5.4.5 1.8 4.6 3 9 1.3 4.4 2.5 8.2 2.7 8.4 2.3 3-2-13.2-5.6-20.9-2-4.4-2.1-4.4-1.5-1zM249.6 460.2c-1.7 12.3-1.8 14.8-.8 14.8.6 0 1.3-3.5 1.7-7.8.4-4.2.9-8.5 1.1-9.5.3-.9.1-1.7-.4-1.7s-1.2 1.9-1.6 4.2zM152.7 459.7c-.7 1.2-2 10.9-1.4 10.3.6-.6 2.6-11 2.1-11-.1 0-.5.3-.7.7zM140.1 469.7c0 3 .3 5.3.9 5.3 1.1 0 1.1-3.1 0-7.5-.7-2.6-.8-2.2-.9 2.2z"/></svg>